<mxfile host="Electron" modified="2023-10-01T07:15:36.292Z" agent="Mozilla/5.0 (Windows NT 10.0; Win64; x64) AppleWebKit/537.36 (KHTML, like Gecko) draw.io/21.6.1 Chrome/112.0.5615.204 Electron/24.6.1 Safari/537.36" etag="ObVUBQdW6aan5cvvhboy" version="21.6.1" type="device">
  <diagram name="第 1 页" id="YqDyrpF9pb_F-inbevkR">
    <mxGraphModel dx="1496" dy="659" grid="0" gridSize="10" guides="1" tooltips="1" connect="1" arrows="1" fold="1" page="0" pageScale="1" pageWidth="827" pageHeight="1169" math="0" shadow="0">
      <root>
        <mxCell id="0" />
        <mxCell id="1" parent="0" />
        <mxCell id="7CA6_X7jdS1qSFVx7CFp-146" value="" style="rounded=1;whiteSpace=wrap;html=1;" vertex="1" parent="1">
          <mxGeometry x="1244" y="1522" width="124" height="60" as="geometry" />
        </mxCell>
        <mxCell id="7CA6_X7jdS1qSFVx7CFp-63" value="" style="rounded=1;whiteSpace=wrap;html=1;arcSize=4;shadow=1;" vertex="1" parent="1">
          <mxGeometry x="-132" y="1416" width="498" height="202" as="geometry" />
        </mxCell>
        <mxCell id="7CA6_X7jdS1qSFVx7CFp-67" value="" style="rounded=1;whiteSpace=wrap;html=1;strokeColor=none;fillColor=#CCE5FF;opacity=50;arcSize=0;" vertex="1" parent="1">
          <mxGeometry x="110" y="1416" width="256" height="201" as="geometry" />
        </mxCell>
        <mxCell id="7CA6_X7jdS1qSFVx7CFp-66" value="" style="rounded=1;whiteSpace=wrap;html=1;fillColor=#FFCCCC;opacity=50;strokeColor=none;arcSize=0;" vertex="1" parent="1">
          <mxGeometry x="-131" y="1416" width="241" height="201" as="geometry" />
        </mxCell>
        <mxCell id="7CA6_X7jdS1qSFVx7CFp-15" value="&lt;span&gt;&lt;br&gt;&lt;/span&gt;" style="rounded=1;whiteSpace=wrap;html=1;fillColor=#FAFAFA;fontColor=#333333;strokeColor=default;fontSize=20;fontFamily=Courier New;align=center;fontStyle=3;dashed=1;" vertex="1" parent="1">
          <mxGeometry x="-194" y="1064" width="939" height="48" as="geometry" />
        </mxCell>
        <mxCell id="glwQQNT3BlrIlvkU1bnN-3" value="" style="rounded=0;whiteSpace=wrap;html=1;strokeColor=#99FF99;strokeWidth=3;" parent="1" vertex="1">
          <mxGeometry x="-77" y="213" width="1159" height="578" as="geometry" />
        </mxCell>
        <mxCell id="glwQQNT3BlrIlvkU1bnN-1" value="" style="rounded=0;whiteSpace=wrap;html=1;strokeColor=#99FF99;strokeWidth=3;" parent="1" vertex="1">
          <mxGeometry x="-131" y="226.5" width="1189" height="578" as="geometry" />
        </mxCell>
        <mxCell id="dj7LxdjRXPsRIexHWwxl-9" value="" style="rounded=0;whiteSpace=wrap;html=1;strokeColor=#00CC00;strokeWidth=3;fillColor=default;" parent="1" vertex="1">
          <mxGeometry x="-207" y="242" width="1239" height="578" as="geometry" />
        </mxCell>
        <mxCell id="7CA6_X7jdS1qSFVx7CFp-7" value="" style="rounded=0;whiteSpace=wrap;html=1;strokeColor=none;strokeWidth=3;opacity=40;dashed=1;fillColor=#99FF99;" vertex="1" parent="1">
          <mxGeometry x="460" y="553" width="212" height="131" as="geometry" />
        </mxCell>
        <mxCell id="dj7LxdjRXPsRIexHWwxl-7" value="" style="rounded=0;whiteSpace=wrap;html=1;strokeColor=none;strokeWidth=3;opacity=40;dashed=1;fillColor=#99FF99;" parent="1" vertex="1">
          <mxGeometry x="672" y="253" width="303" height="431" as="geometry" />
        </mxCell>
        <mxCell id="-wOdw3--CESp0s61eqXn-5" style="edgeStyle=orthogonalEdgeStyle;rounded=0;orthogonalLoop=1;jettySize=auto;html=1;exitX=0.5;exitY=1;exitDx=0;exitDy=0;entryX=0;entryY=0.5;entryDx=0;entryDy=0;" parent="1" source="-wOdw3--CESp0s61eqXn-2" target="-wOdw3--CESp0s61eqXn-4" edge="1">
          <mxGeometry relative="1" as="geometry">
            <Array as="points">
              <mxPoint x="111" y="269" />
              <mxPoint x="279" y="269" />
              <mxPoint x="279" y="329" />
            </Array>
          </mxGeometry>
        </mxCell>
        <mxCell id="-wOdw3--CESp0s61eqXn-26" style="edgeStyle=orthogonalEdgeStyle;rounded=0;orthogonalLoop=1;jettySize=auto;html=1;entryX=0.5;entryY=0;entryDx=0;entryDy=0;" parent="1" source="-wOdw3--CESp0s61eqXn-2" target="-wOdw3--CESp0s61eqXn-25" edge="1">
          <mxGeometry relative="1" as="geometry">
            <Array as="points">
              <mxPoint x="111" y="269" />
              <mxPoint x="13" y="269" />
            </Array>
          </mxGeometry>
        </mxCell>
        <mxCell id="-wOdw3--CESp0s61eqXn-2" value="&lt;font face=&quot;Courier New&quot;&gt;&lt;b&gt;main.cu&lt;/b&gt;&lt;/font&gt;" style="rounded=1;whiteSpace=wrap;html=1;fillColor=#f5f5f5;fontColor=#333333;strokeColor=#666666;fontSize=20;" parent="1" vertex="1">
          <mxGeometry x="59" y="138" width="104" height="25" as="geometry" />
        </mxCell>
        <mxCell id="-wOdw3--CESp0s61eqXn-8" style="edgeStyle=orthogonalEdgeStyle;rounded=0;orthogonalLoop=1;jettySize=auto;html=1;entryX=0.5;entryY=0;entryDx=0;entryDy=0;" parent="1" source="-wOdw3--CESp0s61eqXn-4" target="-wOdw3--CESp0s61eqXn-6" edge="1">
          <mxGeometry relative="1" as="geometry" />
        </mxCell>
        <mxCell id="-wOdw3--CESp0s61eqXn-4" value="&lt;font style=&quot;font-size: 20px;&quot;&gt;&lt;b&gt;gcc -E&lt;/b&gt;&lt;/font&gt;" style="rounded=0;whiteSpace=wrap;html=1;fontFamily=Courier New;fontColor=#FFFFFF;fillColor=#000000;" parent="1" vertex="1">
          <mxGeometry x="755.45" y="314" width="100" height="29" as="geometry" />
        </mxCell>
        <mxCell id="-wOdw3--CESp0s61eqXn-10" style="edgeStyle=orthogonalEdgeStyle;rounded=0;orthogonalLoop=1;jettySize=auto;html=1;entryX=0.5;entryY=0;entryDx=0;entryDy=0;" parent="1" source="-wOdw3--CESp0s61eqXn-6" target="-wOdw3--CESp0s61eqXn-9" edge="1">
          <mxGeometry relative="1" as="geometry" />
        </mxCell>
        <mxCell id="-wOdw3--CESp0s61eqXn-6" value="&lt;font&gt;&lt;b&gt;main.cpp1.ii&lt;/b&gt;&lt;/font&gt;" style="rounded=1;whiteSpace=wrap;html=1;fillColor=#f5f5f5;fontColor=#333333;strokeColor=#666666;fontSize=20;fontFamily=Courier New;" parent="1" vertex="1">
          <mxGeometry x="719.2" y="372" width="172.5" height="25" as="geometry" />
        </mxCell>
        <mxCell id="-wOdw3--CESp0s61eqXn-12" style="edgeStyle=orthogonalEdgeStyle;rounded=0;orthogonalLoop=1;jettySize=auto;html=1;" parent="1" source="-wOdw3--CESp0s61eqXn-9" target="-wOdw3--CESp0s61eqXn-11" edge="1">
          <mxGeometry relative="1" as="geometry" />
        </mxCell>
        <mxCell id="dj7LxdjRXPsRIexHWwxl-2" style="edgeStyle=orthogonalEdgeStyle;rounded=0;orthogonalLoop=1;jettySize=auto;html=1;exitX=0;exitY=0.5;exitDx=0;exitDy=0;entryX=0.5;entryY=0;entryDx=0;entryDy=0;" parent="1" source="-wOdw3--CESp0s61eqXn-9" target="CmtcViIq-gSETjvKF_Yz-5" edge="1">
          <mxGeometry relative="1" as="geometry">
            <Array as="points">
              <mxPoint x="488" y="443" />
            </Array>
          </mxGeometry>
        </mxCell>
        <mxCell id="-wOdw3--CESp0s61eqXn-9" value="&lt;span style=&quot;font-size: 20px;&quot;&gt;&lt;b&gt;cicc&lt;/b&gt;&lt;/span&gt;" style="rounded=0;whiteSpace=wrap;html=1;fontFamily=Courier New;fontColor=#FFFFFF;fillColor=#000000;" parent="1" vertex="1">
          <mxGeometry x="763.94" y="430" width="83" height="26" as="geometry" />
        </mxCell>
        <mxCell id="-wOdw3--CESp0s61eqXn-14" style="edgeStyle=orthogonalEdgeStyle;rounded=0;orthogonalLoop=1;jettySize=auto;html=1;" parent="1" source="-wOdw3--CESp0s61eqXn-11" target="-wOdw3--CESp0s61eqXn-13" edge="1">
          <mxGeometry relative="1" as="geometry" />
        </mxCell>
        <mxCell id="7CA6_X7jdS1qSFVx7CFp-3" style="edgeStyle=orthogonalEdgeStyle;rounded=0;orthogonalLoop=1;jettySize=auto;html=1;entryX=0.5;entryY=0;entryDx=0;entryDy=0;" edge="1" parent="1" source="-wOdw3--CESp0s61eqXn-11" target="-wOdw3--CESp0s61eqXn-17">
          <mxGeometry relative="1" as="geometry">
            <Array as="points">
              <mxPoint x="962" y="516" />
              <mxPoint x="962" y="666" />
              <mxPoint x="805" y="666" />
            </Array>
          </mxGeometry>
        </mxCell>
        <mxCell id="-wOdw3--CESp0s61eqXn-11" value="&lt;font&gt;&lt;b&gt;main.ptx&lt;/b&gt;&lt;/font&gt;" style="rounded=1;whiteSpace=wrap;html=1;fillColor=#f5f5f5;fontColor=#333333;strokeColor=#666666;fontSize=20;fontFamily=Courier New;" parent="1" vertex="1">
          <mxGeometry x="749.0699999999999" y="503" width="112.75" height="25" as="geometry" />
        </mxCell>
        <mxCell id="-wOdw3--CESp0s61eqXn-16" style="edgeStyle=orthogonalEdgeStyle;rounded=0;orthogonalLoop=1;jettySize=auto;html=1;" parent="1" source="-wOdw3--CESp0s61eqXn-13" target="-wOdw3--CESp0s61eqXn-15" edge="1">
          <mxGeometry relative="1" as="geometry" />
        </mxCell>
        <mxCell id="7CA6_X7jdS1qSFVx7CFp-2" style="edgeStyle=orthogonalEdgeStyle;rounded=0;orthogonalLoop=1;jettySize=auto;html=1;entryX=0.5;entryY=0;entryDx=0;entryDy=0;" edge="1" parent="1" source="-wOdw3--CESp0s61eqXn-13" target="7CA6_X7jdS1qSFVx7CFp-1">
          <mxGeometry relative="1" as="geometry" />
        </mxCell>
        <mxCell id="-wOdw3--CESp0s61eqXn-13" value="&lt;span style=&quot;font-size: 20px;&quot;&gt;&lt;b&gt;ptxas&lt;/b&gt;&lt;/span&gt;" style="rounded=0;whiteSpace=wrap;html=1;fontFamily=Courier New;fontColor=#FFFFFF;fillColor=#000000;" parent="1" vertex="1">
          <mxGeometry x="763.94" y="556" width="83" height="26" as="geometry" />
        </mxCell>
        <mxCell id="-wOdw3--CESp0s61eqXn-18" style="edgeStyle=orthogonalEdgeStyle;rounded=0;orthogonalLoop=1;jettySize=auto;html=1;exitX=0.5;exitY=1;exitDx=0;exitDy=0;" parent="1" source="-wOdw3--CESp0s61eqXn-15" target="-wOdw3--CESp0s61eqXn-17" edge="1">
          <mxGeometry relative="1" as="geometry" />
        </mxCell>
        <mxCell id="-wOdw3--CESp0s61eqXn-15" value="&lt;font&gt;&lt;b&gt;main.sm_89.cubin&lt;/b&gt;&lt;/font&gt;" style="rounded=1;whiteSpace=wrap;html=1;fillColor=#f5f5f5;fontColor=#333333;strokeColor=#666666;fontSize=20;fontFamily=Courier New;" parent="1" vertex="1">
          <mxGeometry x="473" y="610" width="214.87" height="25" as="geometry" />
        </mxCell>
        <mxCell id="-wOdw3--CESp0s61eqXn-21" style="edgeStyle=orthogonalEdgeStyle;rounded=0;orthogonalLoop=1;jettySize=auto;html=1;" parent="1" source="-wOdw3--CESp0s61eqXn-17" target="-wOdw3--CESp0s61eqXn-19" edge="1">
          <mxGeometry relative="1" as="geometry" />
        </mxCell>
        <mxCell id="-wOdw3--CESp0s61eqXn-17" value="&lt;span style=&quot;font-size: 20px;&quot;&gt;&lt;b&gt;fatbinary&lt;/b&gt;&lt;/span&gt;" style="rounded=0;whiteSpace=wrap;html=1;fontFamily=Courier New;fontColor=#FFFFFF;fillColor=#000000;" parent="1" vertex="1">
          <mxGeometry x="742.94" y="697" width="125" height="26" as="geometry" />
        </mxCell>
        <mxCell id="dj7LxdjRXPsRIexHWwxl-3" style="edgeStyle=orthogonalEdgeStyle;rounded=0;orthogonalLoop=1;jettySize=auto;html=1;entryX=0.25;entryY=1;entryDx=0;entryDy=0;endArrow=diamond;endFill=1;strokeColor=default;dashed=1;" parent="1" source="-wOdw3--CESp0s61eqXn-19" target="CmtcViIq-gSETjvKF_Yz-5" edge="1">
          <mxGeometry relative="1" as="geometry">
            <mxPoint x="580" y="515.5" as="targetPoint" />
            <Array as="points">
              <mxPoint x="423" y="766" />
            </Array>
          </mxGeometry>
        </mxCell>
        <mxCell id="-wOdw3--CESp0s61eqXn-19" value="&lt;font&gt;&lt;b&gt;main.fatbin.c&lt;/b&gt;&lt;/font&gt;" style="rounded=1;whiteSpace=wrap;html=1;fillColor=#f5f5f5;fontColor=#333333;strokeColor=#666666;fontSize=20;fontFamily=Courier New;" parent="1" vertex="1">
          <mxGeometry x="715.47" y="753" width="179.94" height="25" as="geometry" />
        </mxCell>
        <mxCell id="-wOdw3--CESp0s61eqXn-31" style="edgeStyle=orthogonalEdgeStyle;rounded=0;orthogonalLoop=1;jettySize=auto;html=1;entryX=0.5;entryY=0;entryDx=0;entryDy=0;" parent="1" source="-wOdw3--CESp0s61eqXn-24" target="-wOdw3--CESp0s61eqXn-30" edge="1">
          <mxGeometry relative="1" as="geometry" />
        </mxCell>
        <mxCell id="-wOdw3--CESp0s61eqXn-24" value="&lt;font&gt;&lt;b&gt;main.cpp4.ii&lt;/b&gt;&lt;/font&gt;" style="rounded=1;whiteSpace=wrap;html=1;fillColor=#f5f5f5;fontColor=#333333;strokeColor=#666666;fontSize=20;fontFamily=Courier New;" parent="1" vertex="1">
          <mxGeometry x="-73.25" y="374" width="172.5" height="25" as="geometry" />
        </mxCell>
        <mxCell id="-wOdw3--CESp0s61eqXn-28" style="edgeStyle=orthogonalEdgeStyle;rounded=0;orthogonalLoop=1;jettySize=auto;html=1;" parent="1" source="-wOdw3--CESp0s61eqXn-25" target="-wOdw3--CESp0s61eqXn-24" edge="1">
          <mxGeometry relative="1" as="geometry" />
        </mxCell>
        <mxCell id="-wOdw3--CESp0s61eqXn-25" value="&lt;font style=&quot;font-size: 20px;&quot;&gt;&lt;b&gt;gcc -E&lt;/b&gt;&lt;/font&gt;" style="rounded=0;whiteSpace=wrap;html=1;fontFamily=Courier New;fontColor=#FFFFFF;fillColor=#000000;" parent="1" vertex="1">
          <mxGeometry x="-37" y="316" width="100" height="29" as="geometry" />
        </mxCell>
        <mxCell id="dj7LxdjRXPsRIexHWwxl-11" style="edgeStyle=orthogonalEdgeStyle;rounded=0;orthogonalLoop=1;jettySize=auto;html=1;entryX=0.5;entryY=0;entryDx=0;entryDy=0;" parent="1" source="-wOdw3--CESp0s61eqXn-29" target="dj7LxdjRXPsRIexHWwxl-10" edge="1">
          <mxGeometry relative="1" as="geometry" />
        </mxCell>
        <mxCell id="-wOdw3--CESp0s61eqXn-29" value="&lt;font&gt;&lt;b&gt;main.cudafe1.cpp&lt;/b&gt;&lt;/font&gt;" style="rounded=1;whiteSpace=wrap;html=1;fillColor=#f5f5f5;fontColor=#333333;strokeColor=#666666;fontSize=20;fontFamily=Courier New;" parent="1" vertex="1">
          <mxGeometry x="8" y="503" width="206" height="25" as="geometry" />
        </mxCell>
        <mxCell id="-wOdw3--CESp0s61eqXn-33" style="edgeStyle=orthogonalEdgeStyle;rounded=0;orthogonalLoop=1;jettySize=auto;html=1;entryX=0.5;entryY=0;entryDx=0;entryDy=0;" parent="1" source="-wOdw3--CESp0s61eqXn-30" target="-wOdw3--CESp0s61eqXn-29" edge="1">
          <mxGeometry relative="1" as="geometry" />
        </mxCell>
        <mxCell id="CmtcViIq-gSETjvKF_Yz-4" style="edgeStyle=orthogonalEdgeStyle;rounded=0;orthogonalLoop=1;jettySize=auto;html=1;" parent="1" source="-wOdw3--CESp0s61eqXn-30" target="CmtcViIq-gSETjvKF_Yz-3" edge="1">
          <mxGeometry relative="1" as="geometry" />
        </mxCell>
        <mxCell id="-wOdw3--CESp0s61eqXn-30" value="&lt;font style=&quot;font-size: 20px;&quot;&gt;&lt;b&gt;cudafe++&lt;/b&gt;&lt;/font&gt;" style="rounded=0;whiteSpace=wrap;html=1;fontFamily=Courier New;fontColor=#FFFFFF;fillColor=#000000;" parent="1" vertex="1">
          <mxGeometry x="-51" y="426" width="128" height="29" as="geometry" />
        </mxCell>
        <mxCell id="CmtcViIq-gSETjvKF_Yz-1" value="1" style="ellipse;whiteSpace=wrap;html=1;aspect=fixed;fillColor=#000000;fontColor=#FFFFFF;fontSize=20;fontStyle=1" parent="1" vertex="1">
          <mxGeometry x="76" y="318.5" width="24" height="24" as="geometry" />
        </mxCell>
        <mxCell id="CmtcViIq-gSETjvKF_Yz-2" value="2" style="ellipse;whiteSpace=wrap;html=1;aspect=fixed;fillColor=#000000;fontColor=#FFFFFF;fontSize=20;fontStyle=1" parent="1" vertex="1">
          <mxGeometry x="88" y="428.5" width="24" height="24" as="geometry" />
        </mxCell>
        <mxCell id="CmtcViIq-gSETjvKF_Yz-3" value="&lt;font&gt;&lt;b&gt;main.module_id&lt;/b&gt;&lt;/font&gt;" style="rounded=1;whiteSpace=wrap;html=1;fillColor=#f5f5f5;fontColor=#333333;strokeColor=#666666;fontSize=20;fontFamily=Courier New;" parent="1" vertex="1">
          <mxGeometry x="-196" y="503" width="180" height="25" as="geometry" />
        </mxCell>
        <mxCell id="CmtcViIq-gSETjvKF_Yz-6" style="edgeStyle=orthogonalEdgeStyle;rounded=0;orthogonalLoop=1;jettySize=auto;html=1;dashed=1;endArrow=diamond;endFill=1;" parent="1" source="CmtcViIq-gSETjvKF_Yz-5" target="-wOdw3--CESp0s61eqXn-29" edge="1">
          <mxGeometry relative="1" as="geometry" />
        </mxCell>
        <mxCell id="CmtcViIq-gSETjvKF_Yz-5" value="&lt;font&gt;&lt;b&gt;main.cudafe1.stub.c&lt;/b&gt;&lt;/font&gt;" style="rounded=1;whiteSpace=wrap;html=1;fillColor=#f5f5f5;fontColor=#333333;strokeColor=#666666;fontSize=20;fontFamily=Courier New;" parent="1" vertex="1">
          <mxGeometry x="359" y="503" width="257" height="25" as="geometry" />
        </mxCell>
        <mxCell id="CmtcViIq-gSETjvKF_Yz-7" value="&lt;font style=&quot;font-size: 18px;&quot;&gt;预处理&lt;/font&gt;" style="text;html=1;strokeColor=none;fillColor=none;align=center;verticalAlign=middle;whiteSpace=wrap;rounded=0;fontFamily=Kai;fontSize=18;" parent="1" vertex="1">
          <mxGeometry x="105" y="315" width="69" height="30" as="geometry" />
        </mxCell>
        <mxCell id="CmtcViIq-gSETjvKF_Yz-8" value="&lt;span style=&quot;font-size: 18px;&quot;&gt;分离出 Host 侧源代码&lt;/span&gt;" style="text;html=1;strokeColor=none;fillColor=none;align=center;verticalAlign=middle;whiteSpace=wrap;rounded=0;fontFamily=Kai;fontSize=18;" parent="1" vertex="1">
          <mxGeometry x="116" y="423.5" width="187" height="30" as="geometry" />
        </mxCell>
        <mxCell id="CmtcViIq-gSETjvKF_Yz-9" value="3" style="ellipse;whiteSpace=wrap;html=1;aspect=fixed;fillColor=#000000;fontColor=#FFFFFF;fontSize=20;fontStyle=1" parent="1" vertex="1">
          <mxGeometry x="867" y="316.5" width="24" height="24" as="geometry" />
        </mxCell>
        <mxCell id="CmtcViIq-gSETjvKF_Yz-10" value="&lt;font style=&quot;font-size: 18px;&quot;&gt;预处理&lt;/font&gt;" style="text;html=1;strokeColor=none;fillColor=none;align=center;verticalAlign=middle;whiteSpace=wrap;rounded=0;fontFamily=Kai;fontSize=18;" parent="1" vertex="1">
          <mxGeometry x="896" y="313" width="66" height="30" as="geometry" />
        </mxCell>
        <mxCell id="CmtcViIq-gSETjvKF_Yz-12" value="4" style="ellipse;whiteSpace=wrap;html=1;aspect=fixed;fillColor=#000000;fontColor=#FFFFFF;fontSize=20;fontStyle=1" parent="1" vertex="1">
          <mxGeometry x="879.09" y="417.5" width="24" height="24" as="geometry" />
        </mxCell>
        <mxCell id="CmtcViIq-gSETjvKF_Yz-13" value="&lt;span style=&quot;font-size: 18px;&quot;&gt;编译 PTX&lt;/span&gt;" style="text;html=1;strokeColor=none;fillColor=none;align=center;verticalAlign=middle;whiteSpace=wrap;rounded=0;fontFamily=Kai;fontSize=18;" parent="1" vertex="1">
          <mxGeometry x="831" y="443" width="120.18" height="30" as="geometry" />
        </mxCell>
        <mxCell id="dj7LxdjRXPsRIexHWwxl-4" value="&lt;span style=&quot;font-size: 18px;&quot;&gt;生成 Host 侧 kernel 调用接口&lt;/span&gt;" style="text;html=1;strokeColor=none;fillColor=none;align=center;verticalAlign=middle;whiteSpace=wrap;rounded=0;fontFamily=Kai;fontSize=18;" parent="1" vertex="1">
          <mxGeometry x="488" y="445" width="265.18" height="30" as="geometry" />
        </mxCell>
        <mxCell id="dj7LxdjRXPsRIexHWwxl-5" value="&lt;span style=&quot;font-size: 18px;&quot;&gt;编译 SASS&lt;/span&gt;" style="text;html=1;strokeColor=none;fillColor=none;align=center;verticalAlign=middle;whiteSpace=wrap;rounded=0;fontFamily=Kai;fontSize=18;" parent="1" vertex="1">
          <mxGeometry x="838.0000000000002" y="566.5" width="120.18" height="30" as="geometry" />
        </mxCell>
        <mxCell id="dj7LxdjRXPsRIexHWwxl-6" value="合并 cubin 和 ptx" style="text;html=1;strokeColor=none;fillColor=none;align=center;verticalAlign=middle;whiteSpace=wrap;rounded=0;fontFamily=Kai;fontSize=18;" parent="1" vertex="1">
          <mxGeometry x="871" y="707" width="153" height="30" as="geometry" />
        </mxCell>
        <mxCell id="dj7LxdjRXPsRIexHWwxl-13" style="edgeStyle=orthogonalEdgeStyle;rounded=0;orthogonalLoop=1;jettySize=auto;html=1;" parent="1" source="dj7LxdjRXPsRIexHWwxl-10" target="dj7LxdjRXPsRIexHWwxl-12" edge="1">
          <mxGeometry relative="1" as="geometry" />
        </mxCell>
        <mxCell id="dj7LxdjRXPsRIexHWwxl-10" value="&lt;font style=&quot;font-size: 20px;&quot;&gt;&lt;b&gt;gcc -c&lt;/b&gt;&lt;/font&gt;" style="rounded=0;whiteSpace=wrap;html=1;fontFamily=Courier New;fontColor=#FFFFFF;fillColor=#000000;" parent="1" vertex="1">
          <mxGeometry x="-38" y="591" width="92" height="29" as="geometry" />
        </mxCell>
        <mxCell id="dj7LxdjRXPsRIexHWwxl-34" style="rounded=0;orthogonalLoop=1;jettySize=auto;html=1;entryX=0;entryY=0;entryDx=0;entryDy=0;endArrow=none;endFill=0;exitX=0;exitY=1;exitDx=0;exitDy=0;strokeColor=#B3B3B3;" parent="1" source="dj7LxdjRXPsRIexHWwxl-12" target="dj7LxdjRXPsRIexHWwxl-27" edge="1">
          <mxGeometry relative="1" as="geometry" />
        </mxCell>
        <mxCell id="dj7LxdjRXPsRIexHWwxl-39" style="edgeStyle=orthogonalEdgeStyle;rounded=0;orthogonalLoop=1;jettySize=auto;html=1;" parent="1" source="dj7LxdjRXPsRIexHWwxl-12" target="dj7LxdjRXPsRIexHWwxl-20" edge="1">
          <mxGeometry relative="1" as="geometry" />
        </mxCell>
        <mxCell id="dj7LxdjRXPsRIexHWwxl-12" value="&lt;font&gt;&lt;b&gt;main.o&lt;/b&gt;&lt;/font&gt;" style="rounded=1;whiteSpace=wrap;html=1;fillColor=#f5f5f5;fontColor=#333333;strokeColor=#666666;fontSize=20;fontFamily=Courier New;" parent="1" vertex="1">
          <mxGeometry x="-39" y="667" width="94" height="25" as="geometry" />
        </mxCell>
        <mxCell id="dj7LxdjRXPsRIexHWwxl-15" value="编译出目标文件" style="text;html=1;strokeColor=none;fillColor=none;align=center;verticalAlign=middle;whiteSpace=wrap;rounded=0;fontFamily=Kai;fontSize=18;" parent="1" vertex="1">
          <mxGeometry x="95" y="589" width="134" height="30" as="geometry" />
        </mxCell>
        <mxCell id="dj7LxdjRXPsRIexHWwxl-16" value="7" style="ellipse;whiteSpace=wrap;html=1;aspect=fixed;fillColor=#000000;fontColor=#FFFFFF;fontSize=20;fontStyle=1" parent="1" vertex="1">
          <mxGeometry x="67" y="594" width="24" height="24" as="geometry" />
        </mxCell>
        <mxCell id="dj7LxdjRXPsRIexHWwxl-18" value="5" style="ellipse;whiteSpace=wrap;html=1;aspect=fixed;fillColor=#000000;fontColor=#FFFFFF;fontSize=20;fontStyle=1" parent="1" vertex="1">
          <mxGeometry x="886" y="541.5" width="24" height="24" as="geometry" />
        </mxCell>
        <mxCell id="dj7LxdjRXPsRIexHWwxl-19" value="6" style="ellipse;whiteSpace=wrap;html=1;aspect=fixed;fillColor=#000000;fontColor=#FFFFFF;fontSize=20;fontStyle=1" parent="1" vertex="1">
          <mxGeometry x="935.5" y="678" width="24" height="24" as="geometry" />
        </mxCell>
        <mxCell id="dj7LxdjRXPsRIexHWwxl-20" value="&lt;font style=&quot;font-size: 20px;&quot;&gt;&lt;b&gt;nvlink&lt;/b&gt;&lt;/font&gt;" style="rounded=0;whiteSpace=wrap;html=1;fontFamily=Courier New;fontColor=#FFFFFF;fillColor=#000000;" parent="1" vertex="1">
          <mxGeometry x="-49.5" y="870" width="115" height="29" as="geometry" />
        </mxCell>
        <mxCell id="dj7LxdjRXPsRIexHWwxl-22" value="&lt;font style=&quot;font-size: 15px;&quot;&gt;.text&lt;/font&gt;" style="rounded=0;whiteSpace=wrap;html=1;fillColor=#f5f5f5;fontColor=#333333;strokeColor=#666666;" parent="1" vertex="1">
          <mxGeometry x="-144" y="712" width="37" height="32" as="geometry" />
        </mxCell>
        <mxCell id="dj7LxdjRXPsRIexHWwxl-23" value="&lt;font style=&quot;font-size: 15px;&quot;&gt;.rodata&lt;/font&gt;" style="rounded=0;whiteSpace=wrap;html=1;fillColor=#f5f5f5;fontColor=#333333;strokeColor=#666666;" parent="1" vertex="1">
          <mxGeometry x="-106.99999999999999" y="712" width="60" height="32" as="geometry" />
        </mxCell>
        <mxCell id="dj7LxdjRXPsRIexHWwxl-24" value="&lt;font style=&quot;font-size: 15px;&quot;&gt;.__nv_module_id&lt;/font&gt;" style="rounded=0;whiteSpace=wrap;html=1;fillColor=#f5f5f5;fontColor=#333333;strokeColor=#666666;" parent="1" vertex="1">
          <mxGeometry x="-47" y="712" width="128" height="32" as="geometry" />
        </mxCell>
        <mxCell id="dj7LxdjRXPsRIexHWwxl-25" value="&lt;font style=&quot;font-size: 15px;&quot;&gt;.comment&lt;/font&gt;" style="rounded=0;whiteSpace=wrap;html=1;fillColor=#f5f5f5;fontColor=#333333;strokeColor=#666666;" parent="1" vertex="1">
          <mxGeometry x="363" y="712" width="75" height="32" as="geometry" />
        </mxCell>
        <mxCell id="dj7LxdjRXPsRIexHWwxl-26" value="&lt;font style=&quot;font-size: 15px;&quot;&gt;.note.gnu.property&lt;/font&gt;" style="rounded=0;whiteSpace=wrap;html=1;fillColor=#f5f5f5;fontColor=#333333;strokeColor=#666666;" parent="1" vertex="1">
          <mxGeometry x="438" y="712" width="134" height="32" as="geometry" />
        </mxCell>
        <mxCell id="dj7LxdjRXPsRIexHWwxl-27" value="&lt;font style=&quot;font-size: 15px;&quot;&gt;.group&lt;/font&gt;" style="rounded=0;whiteSpace=wrap;html=1;fillColor=#f5f5f5;fontColor=#333333;strokeColor=#666666;" parent="1" vertex="1">
          <mxGeometry x="-194" y="712" width="50" height="32" as="geometry" />
        </mxCell>
        <mxCell id="dj7LxdjRXPsRIexHWwxl-30" value="&lt;span style=&quot;font-size: 15px;&quot;&gt;.nvFatBinSegment&lt;/span&gt;" style="rounded=0;whiteSpace=wrap;html=1;fillColor=#f5f5f5;fontColor=#333333;strokeColor=#666666;" parent="1" vertex="1">
          <mxGeometry x="81" y="712" width="132" height="32" as="geometry" />
        </mxCell>
        <mxCell id="dj7LxdjRXPsRIexHWwxl-31" value="&lt;span style=&quot;font-size: 15px;&quot;&gt;.init_array&lt;/span&gt;" style="rounded=0;whiteSpace=wrap;html=1;fillColor=#f5f5f5;fontColor=#333333;strokeColor=#666666;" parent="1" vertex="1">
          <mxGeometry x="292" y="712" width="71" height="32" as="geometry" />
        </mxCell>
        <mxCell id="dj7LxdjRXPsRIexHWwxl-32" value="&lt;font style=&quot;font-size: 15px;&quot;&gt;.eh_frame&lt;/font&gt;" style="rounded=0;whiteSpace=wrap;html=1;fillColor=#f5f5f5;fontColor=#333333;strokeColor=#666666;" parent="1" vertex="1">
          <mxGeometry x="572" y="712" width="75" height="32" as="geometry" />
        </mxCell>
        <mxCell id="dj7LxdjRXPsRIexHWwxl-35" style="rounded=0;orthogonalLoop=1;jettySize=auto;html=1;entryX=1;entryY=0;entryDx=0;entryDy=0;endArrow=none;endFill=0;exitX=1;exitY=1;exitDx=0;exitDy=0;strokeColor=#B3B3B3;" parent="1" source="dj7LxdjRXPsRIexHWwxl-12" target="dj7LxdjRXPsRIexHWwxl-32" edge="1">
          <mxGeometry relative="1" as="geometry">
            <mxPoint x="-29" y="699" as="sourcePoint" />
            <mxPoint x="-184" y="732" as="targetPoint" />
          </mxGeometry>
        </mxCell>
        <mxCell id="dj7LxdjRXPsRIexHWwxl-38" style="edgeStyle=orthogonalEdgeStyle;rounded=0;orthogonalLoop=1;jettySize=auto;html=1;curved=1;strokeWidth=2;strokeColor=#FF0000;exitX=1;exitY=0.5;exitDx=0;exitDy=0;" parent="1" source="dj7LxdjRXPsRIexHWwxl-36" target="dj7LxdjRXPsRIexHWwxl-29" edge="1">
          <mxGeometry relative="1" as="geometry" />
        </mxCell>
        <mxCell id="dj7LxdjRXPsRIexHWwxl-36" value="&lt;font color=&quot;#ff0000&quot; style=&quot;font-size: 18px;&quot;&gt;&lt;b&gt;设备代码在这里&lt;/b&gt;&lt;/font&gt;" style="text;html=1;strokeColor=none;fillColor=none;align=center;verticalAlign=middle;whiteSpace=wrap;rounded=0;" parent="1" vertex="1">
          <mxGeometry x="99.25" y="651" width="135" height="30" as="geometry" />
        </mxCell>
        <mxCell id="glwQQNT3BlrIlvkU1bnN-5" style="edgeStyle=orthogonalEdgeStyle;rounded=0;orthogonalLoop=1;jettySize=auto;html=1;entryX=0.5;entryY=0;entryDx=0;entryDy=0;" parent="1" source="glwQQNT3BlrIlvkU1bnN-4" target="glwQQNT3BlrIlvkU1bnN-1" edge="1">
          <mxGeometry relative="1" as="geometry" />
        </mxCell>
        <mxCell id="glwQQNT3BlrIlvkU1bnN-4" value="&lt;font face=&quot;Courier New&quot;&gt;&lt;b&gt;gemm_kernel_1.cu&lt;/b&gt;&lt;/font&gt;" style="rounded=1;whiteSpace=wrap;html=1;fillColor=#f5f5f5;fontColor=#333333;strokeColor=#666666;fontSize=20;" parent="1" vertex="1">
          <mxGeometry x="360" y="138" width="207" height="25" as="geometry" />
        </mxCell>
        <mxCell id="glwQQNT3BlrIlvkU1bnN-7" style="edgeStyle=orthogonalEdgeStyle;rounded=0;orthogonalLoop=1;jettySize=auto;html=1;entryX=0.75;entryY=0;entryDx=0;entryDy=0;" parent="1" source="glwQQNT3BlrIlvkU1bnN-6" target="glwQQNT3BlrIlvkU1bnN-3" edge="1">
          <mxGeometry relative="1" as="geometry" />
        </mxCell>
        <mxCell id="glwQQNT3BlrIlvkU1bnN-6" value="&lt;font face=&quot;Courier New&quot;&gt;&lt;b&gt;gemm_kernel_2.cu&lt;/b&gt;&lt;/font&gt;" style="rounded=1;whiteSpace=wrap;html=1;fillColor=#f5f5f5;fontColor=#333333;strokeColor=#666666;fontSize=20;" parent="1" vertex="1">
          <mxGeometry x="688" y="138" width="207" height="25" as="geometry" />
        </mxCell>
        <mxCell id="dj7LxdjRXPsRIexHWwxl-29" value="&lt;font style=&quot;font-size: 15px;&quot;&gt;.nv_fatbin&lt;/font&gt;" style="rounded=0;whiteSpace=wrap;html=1;fillColor=#f8cecc;strokeColor=#b85450;" parent="1" vertex="1">
          <mxGeometry x="213" y="712" width="79" height="32" as="geometry" />
        </mxCell>
        <mxCell id="7CA6_X7jdS1qSFVx7CFp-4" style="edgeStyle=orthogonalEdgeStyle;rounded=0;orthogonalLoop=1;jettySize=auto;html=1;entryX=0.5;entryY=0;entryDx=0;entryDy=0;" edge="1" parent="1" source="7CA6_X7jdS1qSFVx7CFp-1" target="-wOdw3--CESp0s61eqXn-17">
          <mxGeometry relative="1" as="geometry" />
        </mxCell>
        <mxCell id="7CA6_X7jdS1qSFVx7CFp-1" value="&lt;font&gt;&lt;b&gt;main.sm_90.cubin&lt;/b&gt;&lt;/font&gt;" style="rounded=1;whiteSpace=wrap;html=1;fillColor=#f5f5f5;fontColor=#333333;strokeColor=#666666;fontSize=20;fontFamily=Courier New;" vertex="1" parent="1">
          <mxGeometry x="698.01" y="610.5" width="214.87" height="25" as="geometry" />
        </mxCell>
        <mxCell id="7CA6_X7jdS1qSFVx7CFp-5" value="&lt;font size=&quot;1&quot; style=&quot;&quot; color=&quot;#009900&quot;&gt;&lt;b style=&quot;font-size: 25px;&quot;&gt;单 .cu 编译&lt;/b&gt;&lt;/font&gt;" style="text;html=1;strokeColor=none;fillColor=none;align=center;verticalAlign=middle;whiteSpace=wrap;rounded=0;fontFamily=Kai;fontSize=18;" vertex="1" parent="1">
          <mxGeometry x="-196" y="253" width="133" height="30" as="geometry" />
        </mxCell>
        <mxCell id="7CA6_X7jdS1qSFVx7CFp-6" value="&lt;font color=&quot;#009900&quot;&gt;&lt;span style=&quot;font-size: 25px;&quot;&gt;&lt;b&gt;单 compute_xx 编译&lt;/b&gt;&lt;/span&gt;&lt;/font&gt;" style="text;html=1;strokeColor=none;fillColor=none;align=center;verticalAlign=middle;whiteSpace=wrap;rounded=0;fontFamily=Kai;fontSize=18;" vertex="1" parent="1">
          <mxGeometry x="696" y="262" width="255" height="29" as="geometry" />
        </mxCell>
        <mxCell id="7CA6_X7jdS1qSFVx7CFp-17" style="edgeStyle=orthogonalEdgeStyle;rounded=0;orthogonalLoop=1;jettySize=auto;html=1;entryX=0.75;entryY=0;entryDx=0;entryDy=0;strokeColor=#000000;fontStyle=3" edge="1" parent="1" source="7CA6_X7jdS1qSFVx7CFp-11" target="7CA6_X7jdS1qSFVx7CFp-16">
          <mxGeometry relative="1" as="geometry">
            <Array as="points">
              <mxPoint x="77" y="1102" />
              <mxPoint x="-95" y="1102" />
            </Array>
          </mxGeometry>
        </mxCell>
        <mxCell id="7CA6_X7jdS1qSFVx7CFp-11" value="&lt;font&gt;&lt;span&gt;gemm_kernel_1.cu&lt;/span&gt;&lt;/font&gt;" style="rounded=1;whiteSpace=wrap;html=1;fillColor=#DEDEDE;fontColor=#333333;strokeColor=none;fontSize=20;fontFamily=Courier New;fontStyle=3" vertex="1" parent="1">
          <mxGeometry x="-40" y="1136" width="234" height="25" as="geometry" />
        </mxCell>
        <mxCell id="7CA6_X7jdS1qSFVx7CFp-18" style="edgeStyle=orthogonalEdgeStyle;rounded=0;orthogonalLoop=1;jettySize=auto;html=1;entryX=0.5;entryY=0;entryDx=0;entryDy=0;exitX=0.25;exitY=0;exitDx=0;exitDy=0;strokeColor=#000000;fontStyle=3" edge="1" parent="1" source="7CA6_X7jdS1qSFVx7CFp-12" target="7CA6_X7jdS1qSFVx7CFp-16">
          <mxGeometry relative="1" as="geometry">
            <Array as="points">
              <mxPoint x="280" y="1084" />
              <mxPoint x="-127" y="1084" />
            </Array>
          </mxGeometry>
        </mxCell>
        <mxCell id="7CA6_X7jdS1qSFVx7CFp-12" value="&lt;font&gt;&lt;span&gt;gemm_kernel_2.cu&lt;/span&gt;&lt;/font&gt;" style="rounded=1;whiteSpace=wrap;html=1;fillColor=#DEDEDE;fontColor=#333333;strokeColor=none;fontSize=20;fontFamily=Courier New;fontStyle=3" vertex="1" parent="1">
          <mxGeometry x="221" y="1136" width="234" height="25" as="geometry" />
        </mxCell>
        <mxCell id="7CA6_X7jdS1qSFVx7CFp-19" style="edgeStyle=orthogonalEdgeStyle;rounded=0;orthogonalLoop=1;jettySize=auto;html=1;entryX=0.75;entryY=0;entryDx=0;entryDy=0;strokeColor=#000000;exitX=0.25;exitY=0;exitDx=0;exitDy=0;fontStyle=3" edge="1" parent="1" source="7CA6_X7jdS1qSFVx7CFp-13" target="7CA6_X7jdS1qSFVx7CFp-12">
          <mxGeometry relative="1" as="geometry">
            <Array as="points">
              <mxPoint x="541" y="1092" />
              <mxPoint x="397" y="1092" />
            </Array>
          </mxGeometry>
        </mxCell>
        <mxCell id="7CA6_X7jdS1qSFVx7CFp-13" value="&lt;font&gt;&lt;span&gt;help_function.cu&lt;/span&gt;&lt;/font&gt;" style="rounded=1;whiteSpace=wrap;html=1;fillColor=#DEDEDE;fontColor=#333333;strokeColor=none;fontSize=20;fontFamily=Courier New;fontStyle=3" vertex="1" parent="1">
          <mxGeometry x="482" y="1136" width="234" height="26" as="geometry" />
        </mxCell>
        <mxCell id="7CA6_X7jdS1qSFVx7CFp-16" value="&lt;font&gt;&lt;span&gt;main.cu&lt;/span&gt;&lt;/font&gt;" style="rounded=1;whiteSpace=wrap;html=1;fillColor=#DEDEDE;fontColor=#333333;strokeColor=none;fontSize=20;fontFamily=Courier New;fontStyle=3" vertex="1" parent="1">
          <mxGeometry x="-192" y="1136" width="130" height="25" as="geometry" />
        </mxCell>
        <mxCell id="7CA6_X7jdS1qSFVx7CFp-20" value="&lt;span style=&quot;border-color: var(--border-color); color: rgb(51, 51, 51); font-family: &amp;quot;Courier New&amp;quot;; font-size: 20px;&quot;&gt;gemm_kernel.cuh&lt;/span&gt;" style="text;html=1;strokeColor=none;fillColor=none;align=center;verticalAlign=middle;whiteSpace=wrap;rounded=0;fontStyle=3" vertex="1" parent="1">
          <mxGeometry x="548" y="1073" width="190" height="30" as="geometry" />
        </mxCell>
        <mxCell id="7CA6_X7jdS1qSFVx7CFp-24" value="&lt;font color=&quot;#ff0000&quot;&gt;&lt;span style=&quot;font-size: 18px;&quot;&gt;&lt;b&gt;调用了在另一个 &lt;/b&gt;&lt;font style=&quot;&quot; face=&quot;Courier New&quot;&gt;.cu&lt;/font&gt;&lt;b&gt; 中定义的 &lt;/b&gt;&lt;font style=&quot;&quot; face=&quot;Courier New&quot;&gt;__global__&lt;/font&gt; &lt;b&gt;kernel&lt;/b&gt;&lt;/span&gt;&lt;/font&gt;" style="text;html=1;strokeColor=none;fillColor=none;align=left;verticalAlign=middle;whiteSpace=wrap;rounded=0;fontFamily=Noto Sans Simplified Chinese;fontSource=https%3A%2F%2Ffonts.googleapis.com%2Fcss%3Ffamily%3DNoto%2BSans%2BSimplified%2BChinese;fontStyle=0" vertex="1" parent="1">
          <mxGeometry x="-217" y="1009" width="421.25" height="33" as="geometry" />
        </mxCell>
        <mxCell id="7CA6_X7jdS1qSFVx7CFp-35" style="edgeStyle=orthogonalEdgeStyle;rounded=0;orthogonalLoop=1;jettySize=auto;html=1;curved=1;strokeColor=#3333FF;strokeWidth=2;" edge="1" parent="1" source="7CA6_X7jdS1qSFVx7CFp-27">
          <mxGeometry relative="1" as="geometry">
            <mxPoint x="461.11114501953125" y="1092.6666666666667" as="targetPoint" />
          </mxGeometry>
        </mxCell>
        <mxCell id="7CA6_X7jdS1qSFVx7CFp-27" value="&lt;font&gt;&lt;span style=&quot;font-size: 18px;&quot;&gt;&lt;font face=&quot;Courier New&quot;&gt;__global__&lt;/font&gt; kernel 中调用另一个 &lt;font face=&quot;Courier New&quot;&gt;.cu&lt;/font&gt; 中定义的 &lt;font face=&quot;Courier New&quot;&gt;__device__ &lt;/font&gt;function&lt;/span&gt;&lt;/font&gt;" style="text;html=1;strokeColor=none;fillColor=none;align=left;verticalAlign=middle;whiteSpace=wrap;rounded=0;fontColor=#3333FF;fontFamily=Noto Sans Simplified Chinese;fontSource=https%3A%2F%2Ffonts.googleapis.com%2Fcss%3Ffamily%3DNoto%2BSans%2BSimplified%2BChinese;fontStyle=0" vertex="1" parent="1">
          <mxGeometry x="231.5" y="1009" width="600.5" height="31" as="geometry" />
        </mxCell>
        <mxCell id="7CA6_X7jdS1qSFVx7CFp-28" value="&lt;font style=&quot;font-size: 12px;&quot;&gt;&lt;span style=&quot;font-size: 12px;&quot;&gt;&lt;span style=&quot;font-size: 12px;&quot;&gt;&lt;b&gt;Goal: &lt;/b&gt;launch kernel 的行为是怎么被编译的？&amp;nbsp;&lt;/span&gt;&lt;/span&gt;&lt;/font&gt;" style="text;html=1;strokeColor=none;fillColor=none;align=left;verticalAlign=middle;whiteSpace=wrap;rounded=0;fontStyle=0;fontSize=12;fontFamily=Noto Sans Simplified Chinese;fontSource=https%3A%2F%2Ffonts.googleapis.com%2Fcss%3Ffamily%3DNoto%2BSans%2BSimplified%2BChinese;fontColor=#B3B3B3;" vertex="1" parent="1">
          <mxGeometry x="-193.25" y="1165" width="132.5" height="34" as="geometry" />
        </mxCell>
        <mxCell id="7CA6_X7jdS1qSFVx7CFp-29" value="&lt;font style=&quot;font-size: 12px;&quot;&gt;&lt;span style=&quot;font-size: 12px;&quot;&gt;&lt;span style=&quot;font-size: 12px;&quot;&gt;&lt;b&gt;Goal: &lt;/b&gt;kernel 是怎么被编译的？&amp;nbsp;&lt;/span&gt;&lt;/span&gt;&lt;/font&gt;" style="text;html=1;strokeColor=none;fillColor=none;align=left;verticalAlign=middle;whiteSpace=wrap;rounded=0;fontStyle=0;fontSize=12;fontFamily=Noto Sans Simplified Chinese;fontSource=https%3A%2F%2Ffonts.googleapis.com%2Fcss%3Ffamily%3DNoto%2BSans%2BSimplified%2BChinese;fontColor=#B3B3B3;" vertex="1" parent="1">
          <mxGeometry x="-40" y="1165" width="185" height="19" as="geometry" />
        </mxCell>
        <mxCell id="7CA6_X7jdS1qSFVx7CFp-30" value="&lt;font style=&quot;font-size: 12px;&quot;&gt;&lt;span style=&quot;font-size: 12px;&quot;&gt;&lt;span style=&quot;font-size: 12px;&quot;&gt;&lt;b&gt;Goal: &lt;/b&gt;调用了位于其它 .cu 文件定义的 device funtion 的&amp;nbsp;kernel 是怎么被编译的？&amp;nbsp;&lt;/span&gt;&lt;/span&gt;&lt;/font&gt;" style="text;html=1;strokeColor=none;fillColor=none;align=left;verticalAlign=middle;whiteSpace=wrap;rounded=0;fontStyle=0;fontSize=12;fontFamily=Noto Sans Simplified Chinese;fontSource=https%3A%2F%2Ffonts.googleapis.com%2Fcss%3Ffamily%3DNoto%2BSans%2BSimplified%2BChinese;fontColor=#B3B3B3;" vertex="1" parent="1">
          <mxGeometry x="221" y="1172.5" width="250" height="19" as="geometry" />
        </mxCell>
        <mxCell id="7CA6_X7jdS1qSFVx7CFp-32" value="&lt;font style=&quot;font-size: 12px;&quot;&gt;&lt;span style=&quot;font-size: 12px;&quot;&gt;&lt;span style=&quot;font-size: 12px;&quot;&gt;&lt;b&gt;Goal: &lt;/b&gt;device function 是怎么被编译的？&amp;nbsp;&lt;/span&gt;&lt;/span&gt;&lt;/font&gt;" style="text;html=1;strokeColor=none;fillColor=none;align=left;verticalAlign=middle;whiteSpace=wrap;rounded=0;fontStyle=0;fontSize=12;fontFamily=Noto Sans Simplified Chinese;fontSource=https%3A%2F%2Ffonts.googleapis.com%2Fcss%3Ffamily%3DNoto%2BSans%2BSimplified%2BChinese;fontColor=#B3B3B3;" vertex="1" parent="1">
          <mxGeometry x="482" y="1165" width="235" height="19" as="geometry" />
        </mxCell>
        <mxCell id="7CA6_X7jdS1qSFVx7CFp-33" style="edgeStyle=orthogonalEdgeStyle;rounded=0;orthogonalLoop=1;jettySize=auto;html=1;curved=1;strokeWidth=2;strokeColor=#FF0000;exitX=0.5;exitY=1;exitDx=0;exitDy=0;" edge="1" parent="1" source="7CA6_X7jdS1qSFVx7CFp-24">
          <mxGeometry relative="1" as="geometry">
            <mxPoint x="244" y="676" as="sourcePoint" />
            <mxPoint x="-43" y="1084" as="targetPoint" />
          </mxGeometry>
        </mxCell>
        <mxCell id="7CA6_X7jdS1qSFVx7CFp-34" style="edgeStyle=orthogonalEdgeStyle;rounded=0;orthogonalLoop=1;jettySize=auto;html=1;curved=1;strokeWidth=2;strokeColor=#FF0000;exitX=0.5;exitY=1;exitDx=0;exitDy=0;" edge="1" parent="1" source="7CA6_X7jdS1qSFVx7CFp-24">
          <mxGeometry relative="1" as="geometry">
            <mxPoint x="13" y="1067" as="sourcePoint" />
            <mxPoint x="60" y="1101" as="targetPoint" />
          </mxGeometry>
        </mxCell>
        <mxCell id="7CA6_X7jdS1qSFVx7CFp-39" style="edgeStyle=orthogonalEdgeStyle;rounded=0;orthogonalLoop=1;jettySize=auto;html=1;entryX=1;entryY=0.5;entryDx=0;entryDy=0;curved=1;" edge="1" parent="1" source="7CA6_X7jdS1qSFVx7CFp-36" target="7CA6_X7jdS1qSFVx7CFp-37">
          <mxGeometry relative="1" as="geometry" />
        </mxCell>
        <mxCell id="7CA6_X7jdS1qSFVx7CFp-40" style="edgeStyle=orthogonalEdgeStyle;rounded=0;orthogonalLoop=1;jettySize=auto;html=1;entryX=0;entryY=0.5;entryDx=0;entryDy=0;curved=1;" edge="1" parent="1" source="7CA6_X7jdS1qSFVx7CFp-36" target="7CA6_X7jdS1qSFVx7CFp-38">
          <mxGeometry relative="1" as="geometry" />
        </mxCell>
        <mxCell id="7CA6_X7jdS1qSFVx7CFp-36" value="&lt;font style=&quot;font-size: 19px;&quot;&gt;&lt;font style=&quot;font-size: 19px;&quot; face=&quot;Courier New&quot;&gt;.cu&lt;/font&gt; 文件&lt;/font&gt;" style="rounded=0;whiteSpace=wrap;html=1;fontFamily=Noto Sans Simplified Chinese;fontSource=https%3A%2F%2Ffonts.googleapis.com%2Fcss%3Ffamily%3DNoto%2BSans%2BSimplified%2BChinese;" vertex="1" parent="1">
          <mxGeometry x="28" y="1349" width="166" height="45" as="geometry" />
        </mxCell>
        <mxCell id="7CA6_X7jdS1qSFVx7CFp-45" style="edgeStyle=orthogonalEdgeStyle;rounded=0;orthogonalLoop=1;jettySize=auto;html=1;entryX=0.5;entryY=0;entryDx=0;entryDy=0;" edge="1" parent="1" source="7CA6_X7jdS1qSFVx7CFp-37" target="7CA6_X7jdS1qSFVx7CFp-44">
          <mxGeometry relative="1" as="geometry" />
        </mxCell>
        <mxCell id="7CA6_X7jdS1qSFVx7CFp-37" value="&lt;font face=&quot;Courier New&quot;&gt;&lt;span style=&quot;font-size: 19px;&quot;&gt;Host 程序预处理&lt;/span&gt;&lt;/font&gt;" style="rounded=0;whiteSpace=wrap;html=1;fontFamily=Noto Sans Simplified Chinese;fontSource=https%3A%2F%2Ffonts.googleapis.com%2Fcss%3Ffamily%3DNoto%2BSans%2BSimplified%2BChinese;" vertex="1" parent="1">
          <mxGeometry x="-112" y="1462" width="166" height="45" as="geometry" />
        </mxCell>
        <mxCell id="7CA6_X7jdS1qSFVx7CFp-42" style="edgeStyle=orthogonalEdgeStyle;rounded=0;orthogonalLoop=1;jettySize=auto;html=1;" edge="1" parent="1" source="7CA6_X7jdS1qSFVx7CFp-38" target="7CA6_X7jdS1qSFVx7CFp-41">
          <mxGeometry relative="1" as="geometry" />
        </mxCell>
        <mxCell id="7CA6_X7jdS1qSFVx7CFp-81" style="edgeStyle=orthogonalEdgeStyle;rounded=0;orthogonalLoop=1;jettySize=auto;html=1;entryX=1;entryY=0.5;entryDx=0;entryDy=0;" edge="1" parent="1" source="7CA6_X7jdS1qSFVx7CFp-38" target="7CA6_X7jdS1qSFVx7CFp-44">
          <mxGeometry relative="1" as="geometry">
            <Array as="points">
              <mxPoint x="255" y="1584" />
            </Array>
          </mxGeometry>
        </mxCell>
        <mxCell id="7CA6_X7jdS1qSFVx7CFp-38" value="&lt;font face=&quot;Courier New&quot;&gt;&lt;span style=&quot;font-size: 19px;&quot;&gt;PTX 编译&lt;/span&gt;&lt;/font&gt;" style="rounded=0;whiteSpace=wrap;html=1;fontFamily=Noto Sans Simplified Chinese;fontSource=https%3A%2F%2Ffonts.googleapis.com%2Fcss%3Ffamily%3DNoto%2BSans%2BSimplified%2BChinese;" vertex="1" parent="1">
          <mxGeometry x="190" y="1462" width="130" height="45" as="geometry" />
        </mxCell>
        <mxCell id="7CA6_X7jdS1qSFVx7CFp-43" style="edgeStyle=orthogonalEdgeStyle;rounded=0;orthogonalLoop=1;jettySize=auto;html=1;entryX=1;entryY=0.5;entryDx=0;entryDy=0;" edge="1" parent="1" source="7CA6_X7jdS1qSFVx7CFp-41" target="7CA6_X7jdS1qSFVx7CFp-44">
          <mxGeometry relative="1" as="geometry">
            <Array as="points">
              <mxPoint x="255" y="1539" />
              <mxPoint x="131" y="1539" />
              <mxPoint x="131" y="1584" />
            </Array>
          </mxGeometry>
        </mxCell>
        <mxCell id="7CA6_X7jdS1qSFVx7CFp-59" style="edgeStyle=orthogonalEdgeStyle;rounded=0;orthogonalLoop=1;jettySize=auto;html=1;entryX=1;entryY=1;entryDx=0;entryDy=0;strokeColor=#808080;" edge="1" parent="1" source="7CA6_X7jdS1qSFVx7CFp-41" target="7CA6_X7jdS1qSFVx7CFp-50">
          <mxGeometry relative="1" as="geometry">
            <Array as="points">
              <mxPoint x="255" y="1649" />
            </Array>
          </mxGeometry>
        </mxCell>
        <mxCell id="7CA6_X7jdS1qSFVx7CFp-41" value="&lt;font face=&quot;Courier New&quot;&gt;&lt;span style=&quot;font-size: 19px;&quot;&gt;SASS 编译&lt;/span&gt;&lt;/font&gt;" style="rounded=0;whiteSpace=wrap;html=1;fontFamily=Noto Sans Simplified Chinese;fontSource=https%3A%2F%2Ffonts.googleapis.com%2Fcss%3Ffamily%3DNoto%2BSans%2BSimplified%2BChinese;" vertex="1" parent="1">
          <mxGeometry x="191" y="1561" width="128" height="45" as="geometry" />
        </mxCell>
        <mxCell id="7CA6_X7jdS1qSFVx7CFp-53" style="edgeStyle=orthogonalEdgeStyle;rounded=0;orthogonalLoop=1;jettySize=auto;html=1;" edge="1" parent="1" source="7CA6_X7jdS1qSFVx7CFp-44" target="7CA6_X7jdS1qSFVx7CFp-52">
          <mxGeometry relative="1" as="geometry" />
        </mxCell>
        <mxCell id="7CA6_X7jdS1qSFVx7CFp-58" style="edgeStyle=orthogonalEdgeStyle;rounded=0;orthogonalLoop=1;jettySize=auto;html=1;entryX=1;entryY=0.5;entryDx=0;entryDy=0;strokeColor=#808080;" edge="1" parent="1" source="7CA6_X7jdS1qSFVx7CFp-44" target="7CA6_X7jdS1qSFVx7CFp-48">
          <mxGeometry relative="1" as="geometry" />
        </mxCell>
        <mxCell id="7CA6_X7jdS1qSFVx7CFp-44" value="&lt;font face=&quot;Courier New&quot;&gt;&lt;span style=&quot;font-size: 19px;&quot;&gt;Host 程序编译&lt;/span&gt;&lt;/font&gt;" style="rounded=0;whiteSpace=wrap;html=1;fontFamily=Noto Sans Simplified Chinese;fontSource=https%3A%2F%2Ffonts.googleapis.com%2Fcss%3Ffamily%3DNoto%2BSans%2BSimplified%2BChinese;" vertex="1" parent="1">
          <mxGeometry x="-112" y="1561" width="166" height="45" as="geometry" />
        </mxCell>
        <mxCell id="7CA6_X7jdS1qSFVx7CFp-60" style="edgeStyle=orthogonalEdgeStyle;rounded=0;orthogonalLoop=1;jettySize=auto;html=1;entryX=0;entryY=0;entryDx=0;entryDy=0;exitX=1;exitY=0;exitDx=0;exitDy=0;curved=1;endArrow=none;endFill=0;dashed=1;" edge="1" parent="1" source="7CA6_X7jdS1qSFVx7CFp-46" target="7CA6_X7jdS1qSFVx7CFp-52">
          <mxGeometry relative="1" as="geometry">
            <Array as="points">
              <mxPoint x="-166" y="1443" />
              <mxPoint x="-166" y="1676" />
            </Array>
          </mxGeometry>
        </mxCell>
        <mxCell id="7CA6_X7jdS1qSFVx7CFp-61" style="edgeStyle=orthogonalEdgeStyle;rounded=0;orthogonalLoop=1;jettySize=auto;html=1;entryX=0;entryY=1;entryDx=0;entryDy=0;exitX=1;exitY=1;exitDx=0;exitDy=0;endArrow=none;endFill=0;dashed=1;" edge="1" parent="1" source="7CA6_X7jdS1qSFVx7CFp-46" target="7CA6_X7jdS1qSFVx7CFp-52">
          <mxGeometry relative="1" as="geometry">
            <Array as="points">
              <mxPoint x="-142" y="1721" />
              <mxPoint x="-142" y="1721" />
            </Array>
          </mxGeometry>
        </mxCell>
        <mxCell id="7CA6_X7jdS1qSFVx7CFp-46" value="" style="rounded=0;whiteSpace=wrap;html=1;" vertex="1" parent="1">
          <mxGeometry x="-387" y="1442.5" width="201" height="278.5" as="geometry" />
        </mxCell>
        <mxCell id="7CA6_X7jdS1qSFVx7CFp-47" value="&lt;font style=&quot;font-size: 20px;&quot; face=&quot;Courier New&quot;&gt;.text&lt;/font&gt;" style="rounded=0;whiteSpace=wrap;html=1;fillColor=#f5f5f5;strokeColor=#666666;fontColor=#333333;" vertex="1" parent="1">
          <mxGeometry x="-387" y="1469.5" width="201" height="33" as="geometry" />
        </mxCell>
        <mxCell id="7CA6_X7jdS1qSFVx7CFp-48" value="&lt;font style=&quot;font-size: 20px;&quot; face=&quot;Courier New&quot;&gt;.data&lt;/font&gt;" style="rounded=0;whiteSpace=wrap;html=1;fillColor=#f5f5f5;strokeColor=#666666;fontColor=#333333;" vertex="1" parent="1">
          <mxGeometry x="-387" y="1502.5" width="201" height="33" as="geometry" />
        </mxCell>
        <mxCell id="7CA6_X7jdS1qSFVx7CFp-49" value="&lt;font style=&quot;font-size: 20px;&quot; face=&quot;Courier New&quot;&gt;.rodata&lt;/font&gt;" style="rounded=0;whiteSpace=wrap;html=1;fillColor=#f5f5f5;strokeColor=#666666;fontColor=#333333;" vertex="1" parent="1">
          <mxGeometry x="-387" y="1535.5" width="201" height="33" as="geometry" />
        </mxCell>
        <mxCell id="7CA6_X7jdS1qSFVx7CFp-50" value="&lt;font style=&quot;font-size: 20px;&quot; face=&quot;Courier New&quot;&gt;.nvFatBinSegment&lt;/font&gt;" style="rounded=0;whiteSpace=wrap;html=1;fillColor=#f5f5f5;strokeColor=#666666;fontColor=#333333;" vertex="1" parent="1">
          <mxGeometry x="-387" y="1616" width="201" height="33" as="geometry" />
        </mxCell>
        <mxCell id="7CA6_X7jdS1qSFVx7CFp-51" value="&lt;font style=&quot;font-size: 20px;&quot; face=&quot;Courier New&quot;&gt;.nv_fatbin&lt;/font&gt;" style="rounded=0;whiteSpace=wrap;html=1;fillColor=#f5f5f5;strokeColor=#666666;fontColor=#333333;" vertex="1" parent="1">
          <mxGeometry x="-387" y="1649" width="201" height="33" as="geometry" />
        </mxCell>
        <mxCell id="7CA6_X7jdS1qSFVx7CFp-52" value="&lt;font style=&quot;font-size: 19px;&quot;&gt;&lt;font style=&quot;font-size: 19px;&quot; face=&quot;Courier New&quot;&gt;.o&amp;nbsp;&lt;/font&gt;文件&lt;/font&gt;" style="rounded=0;whiteSpace=wrap;html=1;fontFamily=Noto Sans Simplified Chinese;fontSource=https%3A%2F%2Ffonts.googleapis.com%2Fcss%3Ffamily%3DNoto%2BSans%2BSimplified%2BChinese;" vertex="1" parent="1">
          <mxGeometry x="-112" y="1676" width="166" height="45" as="geometry" />
        </mxCell>
        <mxCell id="7CA6_X7jdS1qSFVx7CFp-64" value="&lt;font color=&quot;#ff0000&quot;&gt;&lt;span style=&quot;font-size: 18px;&quot;&gt;&lt;b&gt;编译轨道&lt;/b&gt;&lt;/span&gt;&lt;/font&gt;" style="text;html=1;strokeColor=none;fillColor=none;align=center;verticalAlign=middle;whiteSpace=wrap;rounded=0;fontFamily=Noto Sans Simplified Chinese;fontSource=https%3A%2F%2Ffonts.googleapis.com%2Fcss%3Ffamily%3DNoto%2BSans%2BSimplified%2BChinese;fontStyle=0" vertex="1" parent="1">
          <mxGeometry x="281" y="1383" width="85" height="33" as="geometry" />
        </mxCell>
        <mxCell id="7CA6_X7jdS1qSFVx7CFp-65" value="&lt;font color=&quot;#ff0000&quot;&gt;&lt;span style=&quot;font-size: 18px;&quot;&gt;&lt;b&gt;sections 分布&lt;/b&gt;&lt;/span&gt;&lt;/font&gt;" style="text;html=1;strokeColor=none;fillColor=none;align=center;verticalAlign=middle;whiteSpace=wrap;rounded=0;fontFamily=Noto Sans Simplified Chinese;fontSource=https%3A%2F%2Ffonts.googleapis.com%2Fcss%3Ffamily%3DNoto%2BSans%2BSimplified%2BChinese;fontStyle=0" vertex="1" parent="1">
          <mxGeometry x="-348.5" y="1690" width="124" height="33" as="geometry" />
        </mxCell>
        <mxCell id="7CA6_X7jdS1qSFVx7CFp-68" value="&lt;font color=&quot;#ff0000&quot;&gt;&lt;span style=&quot;font-size: 18px;&quot;&gt;&lt;b&gt;Host 侧处理&lt;/b&gt;&lt;/span&gt;&lt;/font&gt;" style="text;html=1;strokeColor=none;fillColor=none;align=center;verticalAlign=middle;whiteSpace=wrap;rounded=0;fontFamily=Noto Sans Simplified Chinese;fontSource=https%3A%2F%2Ffonts.googleapis.com%2Fcss%3Ffamily%3DNoto%2BSans%2BSimplified%2BChinese;fontStyle=0" vertex="1" parent="1">
          <mxGeometry x="-82" y="1419" width="106" height="33" as="geometry" />
        </mxCell>
        <mxCell id="7CA6_X7jdS1qSFVx7CFp-69" value="&lt;font&gt;&lt;span style=&quot;font-size: 18px;&quot;&gt;&lt;b&gt;Device 侧处理&lt;/b&gt;&lt;/span&gt;&lt;/font&gt;" style="text;html=1;strokeColor=none;fillColor=none;align=center;verticalAlign=middle;whiteSpace=wrap;rounded=0;fontFamily=Noto Sans Simplified Chinese;fontSource=https%3A%2F%2Ffonts.googleapis.com%2Fcss%3Ffamily%3DNoto%2BSans%2BSimplified%2BChinese;fontStyle=0;fontColor=#3333FF;" vertex="1" parent="1">
          <mxGeometry x="190.5" y="1419" width="124" height="33" as="geometry" />
        </mxCell>
        <mxCell id="7CA6_X7jdS1qSFVx7CFp-70" value="1" style="ellipse;whiteSpace=wrap;html=1;aspect=fixed;fillColor=#000000;fontColor=#FFFFFF;fontSize=20;fontStyle=1" vertex="1" parent="1">
          <mxGeometry x="38" y="1448" width="24" height="24" as="geometry" />
        </mxCell>
        <mxCell id="7CA6_X7jdS1qSFVx7CFp-71" value="2" style="ellipse;whiteSpace=wrap;html=1;aspect=fixed;fillColor=#000000;fontColor=#FFFFFF;fontSize=20;fontStyle=1" vertex="1" parent="1">
          <mxGeometry x="303" y="1452" width="24" height="24" as="geometry" />
        </mxCell>
        <mxCell id="7CA6_X7jdS1qSFVx7CFp-72" value="3" style="ellipse;whiteSpace=wrap;html=1;aspect=fixed;fillColor=#000000;fontColor=#FFFFFF;fontSize=20;fontStyle=1" vertex="1" parent="1">
          <mxGeometry x="303" y="1548" width="24" height="24" as="geometry" />
        </mxCell>
        <mxCell id="7CA6_X7jdS1qSFVx7CFp-73" value="4" style="ellipse;whiteSpace=wrap;html=1;aspect=fixed;fillColor=#000000;fontColor=#FFFFFF;fontSize=20;fontStyle=1" vertex="1" parent="1">
          <mxGeometry x="38" y="1548" width="24" height="24" as="geometry" />
        </mxCell>
        <mxCell id="7CA6_X7jdS1qSFVx7CFp-74" style="edgeStyle=orthogonalEdgeStyle;rounded=0;orthogonalLoop=1;jettySize=auto;html=1;exitX=0;exitY=0;exitDx=0;exitDy=0;entryX=0;entryY=1;entryDx=0;entryDy=0;" edge="1" parent="1" source="7CA6_X7jdS1qSFVx7CFp-72" target="7CA6_X7jdS1qSFVx7CFp-72">
          <mxGeometry relative="1" as="geometry" />
        </mxCell>
        <mxCell id="7CA6_X7jdS1qSFVx7CFp-75" value="&lt;font style=&quot;font-size: 19px;&quot;&gt;&lt;font style=&quot;font-size: 19px;&quot; face=&quot;Courier New&quot;&gt;.o&amp;nbsp;&lt;/font&gt;文件&lt;/font&gt;" style="rounded=0;whiteSpace=wrap;html=1;fontFamily=Noto Sans Simplified Chinese;fontSource=https%3A%2F%2Ffonts.googleapis.com%2Fcss%3Ffamily%3DNoto%2BSans%2BSimplified%2BChinese;" vertex="1" parent="1">
          <mxGeometry x="82.5" y="1676" width="114" height="45" as="geometry" />
        </mxCell>
        <mxCell id="7CA6_X7jdS1qSFVx7CFp-76" value="&lt;font style=&quot;font-size: 19px;&quot;&gt;&lt;font style=&quot;font-size: 19px;&quot; face=&quot;Courier New&quot;&gt;.o&amp;nbsp;&lt;/font&gt;文件&lt;/font&gt;" style="rounded=0;whiteSpace=wrap;html=1;fontFamily=Noto Sans Simplified Chinese;fontSource=https%3A%2F%2Ffonts.googleapis.com%2Fcss%3Ffamily%3DNoto%2BSans%2BSimplified%2BChinese;" vertex="1" parent="1">
          <mxGeometry x="228" y="1676" width="114" height="45" as="geometry" />
        </mxCell>
        <mxCell id="7CA6_X7jdS1qSFVx7CFp-77" value="TODO" style="rounded=1;whiteSpace=wrap;html=1;arcSize=4;shadow=1;" vertex="1" parent="1">
          <mxGeometry x="-393" y="1774" width="759" height="27" as="geometry" />
        </mxCell>
        <mxCell id="7CA6_X7jdS1qSFVx7CFp-78" value="&lt;font color=&quot;#ff0000&quot;&gt;&lt;span style=&quot;font-size: 18px;&quot;&gt;&lt;b&gt;链接期&lt;/b&gt;&lt;/span&gt;&lt;/font&gt;" style="text;html=1;strokeColor=none;fillColor=none;align=center;verticalAlign=middle;whiteSpace=wrap;rounded=0;fontFamily=Noto Sans Simplified Chinese;fontSource=https%3A%2F%2Ffonts.googleapis.com%2Fcss%3Ffamily%3DNoto%2BSans%2BSimplified%2BChinese;fontStyle=0" vertex="1" parent="1">
          <mxGeometry x="303" y="1740" width="67" height="33" as="geometry" />
        </mxCell>
        <mxCell id="7CA6_X7jdS1qSFVx7CFp-79" value="&lt;font face=&quot;Courier New&quot;&gt;&lt;span style=&quot;font-size: 18px;&quot;&gt;&lt;b&gt;.cpp&lt;/b&gt;&lt;/span&gt;&lt;/font&gt;" style="text;html=1;strokeColor=none;fillColor=#FFCCCC;align=center;verticalAlign=middle;whiteSpace=wrap;rounded=0;fontFamily=Noto Sans Simplified Chinese;fontSource=https%3A%2F%2Ffonts.googleapis.com%2Fcss%3Ffamily%3DNoto%2BSans%2BSimplified%2BChinese;fontStyle=0;fontColor=#000000;" vertex="1" parent="1">
          <mxGeometry x="-61" y="1518" width="57.5" height="23" as="geometry" />
        </mxCell>
        <mxCell id="7CA6_X7jdS1qSFVx7CFp-80" value="&lt;font face=&quot;Courier New&quot;&gt;&lt;span style=&quot;font-size: 18px;&quot;&gt;&lt;b&gt;.ptx&lt;/b&gt;&lt;/span&gt;&lt;/font&gt;" style="text;html=1;strokeColor=none;fillColor=#CCE5FF;align=center;verticalAlign=middle;whiteSpace=wrap;rounded=0;fontFamily=Noto Sans Simplified Chinese;fontSource=https%3A%2F%2Ffonts.googleapis.com%2Fcss%3Ffamily%3DNoto%2BSans%2BSimplified%2BChinese;fontStyle=0;fontColor=#000000;" vertex="1" parent="1">
          <mxGeometry x="226.25" y="1510" width="57.5" height="23" as="geometry" />
        </mxCell>
        <mxCell id="7CA6_X7jdS1qSFVx7CFp-85" value="&lt;font face=&quot;Courier New&quot;&gt;&lt;span style=&quot;font-size: 18px;&quot;&gt;&lt;b&gt;.fatbin&lt;/b&gt;&lt;/span&gt;&lt;/font&gt;" style="text;html=1;strokeColor=none;fillColor=#FFCCCC;align=center;verticalAlign=middle;whiteSpace=wrap;rounded=0;fontFamily=Noto Sans Simplified Chinese;fontSource=https%3A%2F%2Ffonts.googleapis.com%2Fcss%3Ffamily%3DNoto%2BSans%2BSimplified%2BChinese;fontStyle=0;fontColor=#000000;rotation=-90;labelBackgroundColor=none;" vertex="1" parent="1">
          <mxGeometry x="37.5" y="1555" width="97" height="23" as="geometry" />
        </mxCell>
        <mxCell id="7CA6_X7jdS1qSFVx7CFp-87" value="&lt;font face=&quot;Courier New&quot;&gt;&lt;span style=&quot;font-size: 18px;&quot;&gt;&lt;b&gt;.cubin&lt;/b&gt;&lt;/span&gt;&lt;/font&gt;" style="text;html=1;strokeColor=none;fillColor=#CCE5FF;align=center;verticalAlign=middle;whiteSpace=wrap;rounded=0;fontFamily=Noto Sans Simplified Chinese;fontSource=https%3A%2F%2Ffonts.googleapis.com%2Fcss%3Ffamily%3DNoto%2BSans%2BSimplified%2BChinese;fontStyle=0;fontColor=#000000;rotation=-90;" vertex="1" parent="1">
          <mxGeometry x="127" y="1568.5" width="68" height="23" as="geometry" />
        </mxCell>
        <mxCell id="7CA6_X7jdS1qSFVx7CFp-113" style="edgeStyle=orthogonalEdgeStyle;rounded=0;orthogonalLoop=1;jettySize=auto;html=1;fontSize=15;" edge="1" parent="1" source="7CA6_X7jdS1qSFVx7CFp-91" target="7CA6_X7jdS1qSFVx7CFp-112">
          <mxGeometry relative="1" as="geometry" />
        </mxCell>
        <mxCell id="7CA6_X7jdS1qSFVx7CFp-91" value="&lt;font style=&quot;font-size: 15px;&quot;&gt;&lt;span style=&quot;font-size: 15px;&quot;&gt;gemm_kernel_1.cu&lt;/span&gt;&lt;/font&gt;" style="rounded=1;whiteSpace=wrap;html=1;fillColor=#DEDEDE;fontColor=#333333;strokeColor=default;fontSize=15;fontFamily=Courier New;fontStyle=1;opacity=50;" vertex="1" parent="1">
          <mxGeometry x="709" y="1440" width="234" height="25" as="geometry" />
        </mxCell>
        <mxCell id="7CA6_X7jdS1qSFVx7CFp-111" style="edgeStyle=orthogonalEdgeStyle;rounded=0;orthogonalLoop=1;jettySize=auto;html=1;entryX=0;entryY=0.5;entryDx=0;entryDy=0;fontSize=15;" edge="1" parent="1" source="7CA6_X7jdS1qSFVx7CFp-93" target="7CA6_X7jdS1qSFVx7CFp-110">
          <mxGeometry relative="1" as="geometry" />
        </mxCell>
        <mxCell id="7CA6_X7jdS1qSFVx7CFp-93" value="&lt;font style=&quot;font-size: 15px;&quot;&gt;&lt;span style=&quot;font-size: 15px;&quot;&gt;gemm_kernel_2.cu&lt;/span&gt;&lt;/font&gt;" style="rounded=1;whiteSpace=wrap;html=1;fillColor=#DEDEDE;fontColor=#333333;strokeColor=default;fontSize=15;fontFamily=Courier New;fontStyle=1;opacity=50;" vertex="1" parent="1">
          <mxGeometry x="709" y="1396.5" width="234" height="25" as="geometry" />
        </mxCell>
        <mxCell id="7CA6_X7jdS1qSFVx7CFp-109" style="edgeStyle=orthogonalEdgeStyle;rounded=0;orthogonalLoop=1;jettySize=auto;html=1;fontSize=15;" edge="1" parent="1" source="7CA6_X7jdS1qSFVx7CFp-95" target="7CA6_X7jdS1qSFVx7CFp-108">
          <mxGeometry relative="1" as="geometry" />
        </mxCell>
        <mxCell id="7CA6_X7jdS1qSFVx7CFp-95" value="&lt;font style=&quot;font-size: 15px;&quot;&gt;&lt;span style=&quot;font-size: 15px;&quot;&gt;help_function.cu&lt;/span&gt;&lt;/font&gt;" style="rounded=1;whiteSpace=wrap;html=1;fillColor=#DEDEDE;fontColor=#333333;strokeColor=default;fontSize=15;fontFamily=Courier New;fontStyle=1;opacity=50;" vertex="1" parent="1">
          <mxGeometry x="709" y="1333" width="234" height="26" as="geometry" />
        </mxCell>
        <mxCell id="7CA6_X7jdS1qSFVx7CFp-138" style="edgeStyle=orthogonalEdgeStyle;rounded=0;orthogonalLoop=1;jettySize=auto;html=1;entryX=0;entryY=0.5;entryDx=0;entryDy=0;endArrow=diamond;endFill=1;dashed=1;" edge="1" parent="1" source="7CA6_X7jdS1qSFVx7CFp-110" target="7CA6_X7jdS1qSFVx7CFp-137">
          <mxGeometry relative="1" as="geometry" />
        </mxCell>
        <mxCell id="7CA6_X7jdS1qSFVx7CFp-110" value="&lt;div style=&quot;font-size: 15px;&quot;&gt;&lt;font color=&quot;#3333ff&quot; style=&quot;font-size: 15px;&quot;&gt;__global__ &lt;/font&gt;void &lt;font color=&quot;#3333ff&quot; style=&quot;font-size: 15px;&quot;&gt;gemm_kernel_2&lt;/font&gt;(&lt;span style=&quot;background-color: initial; font-size: 15px;&quot;&gt;)&lt;/span&gt;&lt;/div&gt;" style="rounded=1;whiteSpace=wrap;html=1;fontSize=15;fontFamily=Courier New;fontStyle=1;align=center;" vertex="1" parent="1">
          <mxGeometry x="963" y="1396" width="387" height="26" as="geometry" />
        </mxCell>
        <mxCell id="7CA6_X7jdS1qSFVx7CFp-139" style="edgeStyle=orthogonalEdgeStyle;rounded=0;orthogonalLoop=1;jettySize=auto;html=1;endArrow=diamond;endFill=1;dashed=1;" edge="1" parent="1" source="7CA6_X7jdS1qSFVx7CFp-112" target="7CA6_X7jdS1qSFVx7CFp-137">
          <mxGeometry relative="1" as="geometry" />
        </mxCell>
        <mxCell id="7CA6_X7jdS1qSFVx7CFp-112" value="&lt;div style=&quot;font-size: 15px;&quot;&gt;&lt;font color=&quot;#3333ff&quot; style=&quot;font-size: 15px;&quot;&gt;__global__ &lt;/font&gt;void &lt;font color=&quot;#3333ff&quot; style=&quot;font-size: 15px;&quot;&gt;gemm_kernel_1&lt;/font&gt;(&lt;span style=&quot;background-color: initial; font-size: 15px;&quot;&gt;)&lt;/span&gt;&lt;/div&gt;" style="rounded=1;whiteSpace=wrap;html=1;fontSize=15;fontFamily=Courier New;fontStyle=1;align=center;" vertex="1" parent="1">
          <mxGeometry x="963" y="1440" width="387" height="26" as="geometry" />
        </mxCell>
        <mxCell id="7CA6_X7jdS1qSFVx7CFp-132" style="edgeStyle=orthogonalEdgeStyle;rounded=0;orthogonalLoop=1;jettySize=auto;html=1;entryX=0.5;entryY=0;entryDx=0;entryDy=0;fontSize=15;endArrow=diamond;endFill=1;dashed=1;" edge="1" parent="1" source="7CA6_X7jdS1qSFVx7CFp-108" target="7CA6_X7jdS1qSFVx7CFp-110">
          <mxGeometry relative="1" as="geometry" />
        </mxCell>
        <mxCell id="7CA6_X7jdS1qSFVx7CFp-108" value="&lt;div style=&quot;font-size: 15px;&quot;&gt;&lt;font color=&quot;#3333ff&quot; style=&quot;font-size: 15px;&quot;&gt;__device__ &lt;/font&gt;int &lt;font color=&quot;#3333ff&quot; style=&quot;font-size: 15px;&quot;&gt;get_flat_index&lt;/font&gt;()&lt;/div&gt;" style="rounded=1;whiteSpace=wrap;html=1;fontSize=15;fontFamily=Courier New;fontStyle=1" vertex="1" parent="1">
          <mxGeometry x="963" y="1333" width="387" height="26" as="geometry" />
        </mxCell>
        <mxCell id="7CA6_X7jdS1qSFVx7CFp-136" style="edgeStyle=orthogonalEdgeStyle;rounded=0;orthogonalLoop=1;jettySize=auto;html=1;entryX=0.5;entryY=1;entryDx=0;entryDy=0;endArrow=diamond;endFill=1;dashed=1;" edge="1" parent="1" source="7CA6_X7jdS1qSFVx7CFp-122" target="7CA6_X7jdS1qSFVx7CFp-135">
          <mxGeometry relative="1" as="geometry" />
        </mxCell>
        <mxCell id="7CA6_X7jdS1qSFVx7CFp-122" value="&lt;font&gt;&lt;span&gt;cublas&lt;/span&gt;&lt;/font&gt;" style="rounded=1;whiteSpace=wrap;html=1;fontSize=20;fontFamily=Courier New;fontStyle=1;opacity=50;" vertex="1" parent="1">
          <mxGeometry x="1110" y="1552" width="93" height="23" as="geometry" />
        </mxCell>
        <mxCell id="7CA6_X7jdS1qSFVx7CFp-133" style="edgeStyle=orthogonalEdgeStyle;rounded=0;orthogonalLoop=1;jettySize=auto;html=1;fontSize=15;" edge="1" source="7CA6_X7jdS1qSFVx7CFp-134" target="7CA6_X7jdS1qSFVx7CFp-135" parent="1">
          <mxGeometry relative="1" as="geometry" />
        </mxCell>
        <mxCell id="7CA6_X7jdS1qSFVx7CFp-134" value="&lt;font style=&quot;font-size: 15px;&quot;&gt;&lt;span style=&quot;font-size: 15px;&quot;&gt;gemm_kernel_cublas.cu&lt;/span&gt;&lt;/font&gt;" style="rounded=1;whiteSpace=wrap;html=1;fillColor=#DEDEDE;fontColor=#333333;strokeColor=default;fontSize=15;fontFamily=Courier New;fontStyle=1;opacity=50;" vertex="1" parent="1">
          <mxGeometry x="709" y="1484" width="234" height="25" as="geometry" />
        </mxCell>
        <mxCell id="7CA6_X7jdS1qSFVx7CFp-140" style="edgeStyle=orthogonalEdgeStyle;rounded=0;orthogonalLoop=1;jettySize=auto;html=1;entryX=0;entryY=0.5;entryDx=0;entryDy=0;endArrow=diamond;endFill=1;dashed=1;" edge="1" parent="1" source="7CA6_X7jdS1qSFVx7CFp-135" target="7CA6_X7jdS1qSFVx7CFp-137">
          <mxGeometry relative="1" as="geometry" />
        </mxCell>
        <mxCell id="7CA6_X7jdS1qSFVx7CFp-135" value="&lt;div style=&quot;font-size: 15px;&quot;&gt;void &lt;font color=&quot;#3333ff&quot; style=&quot;font-size: 15px;&quot;&gt;gemm_kernel_cublas&lt;/font&gt;(&lt;span style=&quot;background-color: initial; font-size: 15px;&quot;&gt;)&lt;/span&gt;&lt;/div&gt;" style="rounded=1;whiteSpace=wrap;html=1;fontSize=15;fontFamily=Courier New;fontStyle=1;align=center;" vertex="1" parent="1">
          <mxGeometry x="963" y="1484" width="387" height="26" as="geometry" />
        </mxCell>
        <mxCell id="7CA6_X7jdS1qSFVx7CFp-137" value="&lt;font style=&quot;font-size: 15px;&quot;&gt;&lt;span style=&quot;font-size: 15px;&quot;&gt;main.cu&lt;/span&gt;&lt;/font&gt;" style="rounded=1;whiteSpace=wrap;html=1;fillColor=#DEDEDE;fontColor=#333333;strokeColor=default;fontSize=15;fontFamily=Courier New;fontStyle=1;opacity=50;" vertex="1" parent="1">
          <mxGeometry x="1390" y="1440.5" width="82" height="25" as="geometry" />
        </mxCell>
        <mxCell id="7CA6_X7jdS1qSFVx7CFp-141" value="" style="endArrow=diamond;html=1;rounded=0;endFill=1;dashed=1;" edge="1" parent="1">
          <mxGeometry width="50" height="50" relative="1" as="geometry">
            <mxPoint x="1292" y="1536.48" as="sourcePoint" />
            <mxPoint x="1353" y="1536.48" as="targetPoint" />
          </mxGeometry>
        </mxCell>
        <mxCell id="7CA6_X7jdS1qSFVx7CFp-142" value="" style="endArrow=classic;html=1;rounded=0;endFill=1;" edge="1" parent="1">
          <mxGeometry width="50" height="50" relative="1" as="geometry">
            <mxPoint x="1292" y="1565.25" as="sourcePoint" />
            <mxPoint x="1353" y="1565.25" as="targetPoint" />
          </mxGeometry>
        </mxCell>
        <mxCell id="7CA6_X7jdS1qSFVx7CFp-143" value="&lt;b&gt;定义&lt;/b&gt;" style="text;html=1;strokeColor=none;fillColor=none;align=center;verticalAlign=middle;whiteSpace=wrap;rounded=0;" vertex="1" parent="1">
          <mxGeometry x="1254" y="1560" width="32" height="14.5" as="geometry" />
        </mxCell>
        <mxCell id="7CA6_X7jdS1qSFVx7CFp-145" value="&lt;b&gt;引用&lt;/b&gt;" style="text;html=1;strokeColor=none;fillColor=none;align=center;verticalAlign=middle;whiteSpace=wrap;rounded=0;" vertex="1" parent="1">
          <mxGeometry x="1254" y="1529.5" width="32" height="14.5" as="geometry" />
        </mxCell>
        <mxCell id="7CA6_X7jdS1qSFVx7CFp-148" value="A" style="ellipse;whiteSpace=wrap;html=1;aspect=fixed;fillColor=#FF0000;fontColor=#FFFFFF;fontSize=20;fontStyle=1;strokeColor=none;" vertex="1" parent="1">
          <mxGeometry x="257" y="1387.5" width="24" height="24" as="geometry" />
        </mxCell>
        <mxCell id="7CA6_X7jdS1qSFVx7CFp-149" value="B" style="ellipse;whiteSpace=wrap;html=1;aspect=fixed;fillColor=#FF0000;fontColor=#FFFFFF;fontSize=20;fontStyle=1;strokeColor=none;" vertex="1" parent="1">
          <mxGeometry x="281" y="1744.5" width="24" height="24" as="geometry" />
        </mxCell>
      </root>
    </mxGraphModel>
  </diagram>
</mxfile>
